<svg xmlns="http://www.w3.org/2000/svg" width="1440" height="900" viewBox="0 0 1440 900"><defs><filter id="shadow" x="-20%" y="-20%" width="140%" height="140%"><feDropShadow dx="0" dy="8" stdDeviation="14" flood-color="#322b55" flood-opacity="0.08"/></filter><filter id="soft" x="-20%" y="-20%" width="140%" height="140%"><feDropShadow dx="0" dy="4" stdDeviation="8" flood-color="#322b55" flood-opacity="0.06"/></filter><linearGradient id="portfolioGrad" x1="0" y1="0" x2="1" y2="1"><stop offset="0" stop-color="#EDE8FF"/><stop offset="1" stop-color="#DFF7EF"/></linearGradient><linearGradient id="storyGrad" x1="0" y1="0" x2="1" y2="1"><stop offset="0" stop-color="#FFF0C9"/><stop offset="1" stop-color="#FFE4EE"/></linearGradient><linearGradient id="goalGrad" x1="0" y1="0" x2="1" y2="1"><stop offset="0" stop-color="#E3F2FF"/><stop offset="1" stop-color="#F2E8FF"/></linearGradient></defs><rect width="1440" height="900" fill="#FAF9FF"/><circle cx="1320" cy="110" r="170" fill="#F2ECFF" opacity="0.65"/><circle cx="80" cy="830" r="190" fill="#EAF8F2" opacity="0.7"/><rect x="48" y="28" width="1344" height="76" rx="24" fill="#FFFFFF" filter="url(#shadow)"/><g transform="translate(76 48)"><rect width="38" height="38" rx="12" fill="#6D5CE7"/><path d="M10 25 C15 16, 20 31, 28 12" fill="none" stroke="#FFFFFF" stroke-width="3.4" stroke-linecap="round" stroke-linejoin="round"/><text x="52" y="27" font-family="Inter, Arial, sans-serif" font-size="22" font-weight="750" fill="#2F2A46">Market Era</text></g><g font-family="Inter, Arial, sans-serif" font-size="15" font-weight="650"><rect x="300" y="46" width="92" height="40" rx="14" fill="#EEE9FF"/><text x="346" y="72" text-anchor="middle" fill="#5D4ED6">Market</text><text x="438" y="72" text-anchor="middle" fill="#77728A">Portfolio</text><text x="540" y="72" text-anchor="middle" fill="#77728A">Discover</text></g><g font-family="Inter, Arial, sans-serif"><rect x="1016" y="46" width="178" height="40" rx="14" fill="#F7F4FF"/><circle cx="1038" cy="66" r="6" fill="#62CFA8"/><text x="1052" y="71" font-size="13" font-weight="700" fill="#4C4760">Era 01 · Day 12</text><rect x="1208" y="46" width="44" height="40" rx="14" fill="#F7F4FF"/><path d="M1229 58 q6 0 6 7 v4 l3 4 h-18 l3-4 v-4 q0-7 6-7z" fill="none" stroke="#5D576E" stroke-width="1.8" stroke-linejoin="round"/><circle cx="1237" cy="54" r="4" fill="#FF7D9F"/><rect x="1264" y="46" width="100" height="40" rx="14" fill="#F7F4FF"/><circle cx="1286" cy="66" r="12" fill="#FFD38D"/><text x="1318" y="71" font-size="13" font-weight="700" fill="#4C4760">Profile</text></g><g font-family="Inter, Arial, sans-serif"><text x="112" y="154" font-size="13" font-weight="800" letter-spacing="1.6" fill="#8B84A1">MARKET OVERVIEW</text><text x="112" y="191" font-size="30" font-weight="780" fill="#2D2940">The market feels lively today.</text><text x="112" y="219" font-size="15" fill="#716C82">Start simple. See what changed, why it changed, and what looks worth exploring.</text></g><rect x="112" y="252" width="760" height="210" rx="30" fill="url(#portfolioGrad)" filter="url(#shadow)"/><g font-family="Inter, Arial, sans-serif"><text x="144" y="290" font-size="12" font-weight="800" letter-spacing="1.3" fill="#6E6786">YOUR PORTFOLIO</text><text x="144" y="344" font-size="42" font-weight="800" fill="#2F2A46">$12,480</text><rect x="144" y="364" width="120" height="34" rx="17" fill="#FFFFFF" opacity="0.78"/><path d="M160 384 l7-8 7 5 8-11" fill="none" stroke="#45A983" stroke-width="2.6" stroke-linecap="round" stroke-linejoin="round"/><text x="192" y="386" font-size="14" font-weight="750" fill="#338268">+2.4% this Era</text><text x="144" y="426" font-size="15" font-weight="650" fill="#56506D">Steady growth. Your tech picks are doing most of the work.</text></g><g transform="translate(590 284)"><path d="M0 116 C38 98, 55 76, 84 86 C115 97, 140 45, 188 35 C222 28, 246 40, 260 16" fill="none" stroke="#6D5CE7" stroke-width="8" stroke-linecap="round" opacity="0.85"/><circle cx="84" cy="86" r="8" fill="#FFFFFF" stroke="#6D5CE7" stroke-width="4"/><circle cx="188" cy="35" r="8" fill="#FFFFFF" stroke="#6D5CE7" stroke-width="4"/><circle cx="260" cy="16" r="10" fill="#6D5CE7"/><path d="M260 16 l-14 -2 8 12z" fill="#6D5CE7"/></g><rect x="896" y="252" width="432" height="210" rx="30" fill="url(#goalGrad)" filter="url(#shadow)"/><g font-family="Inter, Arial, sans-serif"><text x="928" y="290" font-size="12" font-weight="800" letter-spacing="1.3" fill="#6E6786">YOUR NEXT GOAL</text><text x="928" y="326" font-size="21" font-weight="780" fill="#2F2A46">Make a researched investment</text><text x="928" y="354" font-size="14" fill="#666079">Open a company, read one reason, then decide.</text><rect x="928" y="383" width="312" height="12" rx="6" fill="#FFFFFF" opacity="0.72"/><rect x="928" y="383" width="208" height="12" rx="6" fill="#7E6BEA"/><text x="928" y="423" font-size="13" font-weight="700" fill="#5D5670">2 of 3 steps</text><rect x="1196" y="409" width="96" height="32" rx="14" fill="#FFFFFF" opacity="0.9"/><text x="1244" y="430" text-anchor="middle" font-size="13" font-weight="760" fill="#5D4ED6">Continue</text></g><rect x="112" y="486" width="1216" height="150" rx="30" fill="url(#storyGrad)" filter="url(#soft)"/><g font-family="Inter, Arial, sans-serif"><text x="144" y="520" font-size="12" font-weight="800" letter-spacing="1.3" fill="#756B75">WHAT'S HAPPENING</text><rect x="144" y="540" width="116" height="30" rx="15" fill="#FFFFFF" opacity="0.82"/><circle cx="160" cy="555" r="5" fill="#F2A83B"/><text x="173" y="560" font-size="12" font-weight="750" fill="#655B67">Market: upbeat</text><text x="144" y="594" font-size="21" font-weight="780" fill="#302B40">Nova Motors is getting attention after a strong prototype reveal.</text><text x="144" y="620" font-size="14" fill="#665F70">Investors are more optimistic, and buying interest has picked up. NOVA is up 3.2%.</text></g><g transform="translate(1118 516)"><rect x="0" y="42" width="126" height="52" rx="20" fill="#7564E8"/><path d="M22 42 q18-34 55-28 q25 4 38 28z" fill="#B9AEFF"/><rect x="39" y="22" width="37" height="18" rx="5" fill="#E6E1FF"/><circle cx="30" cy="94" r="15" fill="#3C3652"/><circle cx="102" cy="94" r="15" fill="#3C3652"/><circle cx="30" cy="94" r="7" fill="#EAE6FF"/><circle cx="102" cy="94" r="7" fill="#EAE6FF"/><path d="M130 24 l18-16 m-8 34 l24-4 m-34-28 l4-20" stroke="#F2A83B" stroke-width="5" stroke-linecap="round"/></g><g font-family="Inter, Arial, sans-serif"><text x="112" y="688" font-size="12" font-weight="800" letter-spacing="1.3" fill="#8B84A1">EXPLORE THE MARKET</text><text x="112" y="719" font-size="22" font-weight="780" fill="#2F2A46">A few things worth a look</text><rect x="1096" y="684" width="92" height="36" rx="16" fill="#EEE9FF"/><text x="1142" y="707" text-anchor="middle" font-size="13" font-weight="760" fill="#5D4ED6">Stocks</text><rect x="1196" y="684" width="92" height="36" rx="16" fill="#FFFFFF" stroke="#E8E4F1"/><text x="1242" y="707" text-anchor="middle" font-size="13" font-weight="700" fill="#77728A">Crypto</text></g><g font-family="Inter, Arial, sans-serif"><rect x="112" y="742" width="1216" height="72" rx="22" fill="#FFFFFF" filter="url(#soft)"/><circle cx="148" cy="778" r="20" fill="#7E6BEA"/><path d="M136 786 q12-24 24 0" fill="none" stroke="#FFFFFF" stroke-width="3" stroke-linecap="round"/><text x="182" y="772" font-size="15" font-weight="760" fill="#332E47">Nova Motors</text><text x="182" y="793" font-size="12" fill="#8A8497">Mobility · NOVA</text><text x="530" y="783" font-size="16" font-weight="780" fill="#332E47">$42.18</text><text x="646" y="783" font-size="14" font-weight="760" fill="#338268">▲ 3.2%</text><path d="M752 790 C770 784, 782 792, 800 779 C816 767, 835 775, 850 756" fill="none" stroke="#55B68F" stroke-width="3" stroke-linecap="round"/><text x="910" y="783" font-size="13" fill="#625D70">Prototype news is lifting confidence</text><text x="1288" y="783" text-anchor="end" font-size="18" fill="#8B84A1">›</text><rect x="112" y="824" width="1216" height="72" rx="22" fill="#FFFFFF" filter="url(#soft)"/><circle cx="148" cy="860" r="20" fill="#5BB9D6"/><path d="M138 865 l10-18 10 18z" fill="none" stroke="#FFFFFF" stroke-width="3" stroke-linejoin="round"/><text x="182" y="854" font-size="15" font-weight="760" fill="#332E47">Luma Labs</text><text x="182" y="875" font-size="12" fill="#8A8497">Technology · LUMA</text><text x="530" y="865" font-size="16" font-weight="780" fill="#332E47">$78.40</text><text x="646" y="865" font-size="14" font-weight="760" fill="#338268">▲ 1.1%</text><path d="M752 872 C770 866, 786 870, 802 862 C820 853, 836 860, 850 848" fill="none" stroke="#55B68F" stroke-width="3" stroke-linecap="round"/><text x="910" y="865" font-size="13" fill="#625D70">The technology sector is helping</text><text x="1288" y="865" text-anchor="end" font-size="18" fill="#8B84A1">›</text></g></svg>